<svg xmlns="http://www.w3.org/2000/svg" version="1.1" xmlns:xlink="http://www.w3.org/1999/xlink" xmlns:svgjs="http://svgjs.dev/svgjs" width="1500" height="1500" viewBox="0 0 1500 1500"><g transform="matrix(1,0,0,1,-0.7499999999998863,-0.7495866918104639)"><svg viewBox="0 0 280 280" data-background-color="#4a5d5e" preserveAspectRatio="xMidYMid meet" height="1500" width="1500" xmlns="http://www.w3.org/2000/svg" xmlns:xlink="http://www.w3.org/1999/xlink"><g id="tight-bounds" transform="matrix(1,0,0,1,0.13999999999998636,0.14007715086205508)"><svg viewBox="0 0 279.72 279.72" height="279.72" width="279.72"><g><svg viewBox="0 0 279.72 279.72" height="279.72" width="279.72"><g><svg viewBox="0 0 279.72 279.72" height="279.72" width="279.72"><g id="textblocktransform"><svg viewBox="0 0 279.72 279.72" height="279.72" width="279.72" id="textblock"><g><svg viewBox="0 0 279.72 279.72" height="279.72" width="279.72"><g transform="matrix(1,0,0,1,57.446704652707865,57.446704652707865)"><svg viewBox="0 0 164.8265906945843 164.8265906945843" height="164.8265906945843" width="164.8265906945843"><g id="icon-0"><circle r="82" cx="82.41329534729215" cy="82.41329534729215" fill="#f8f8ec" data-fill-palette-color="accent"></circle><svg xmlns="http://www.w3.org/2000/svg" xmlns:xlink="http://www.w3.org/1999/xlink" version="1.1" x="24.723988604187646" y="24.72398860418764" viewBox="8.667 7.189557496108699 83.00104293720452 87.7694425038913" enable-background="new 0 0 100 100" xml:space="preserve" height="115.378613486209" width="115.378613486209" class="icon-xg-0" data-fill-palette-color="quaternary" id="xg-0"><g fill="#4a5d5e" data-fill-palette-color="quaternary"><path fill="#4a5d5e" d="M30.291 94.959L8.667 73.387l9.857-9.881 21.625 21.572L30.291 94.959zM23.337 64.651l15.735 15.39 8.372-8.54c0 0 24.354 0.708 26.691 0 1.381-0.743 16.991-20.319 17.487-22.514 0.177-1.133-0.177-1.274-0.708-1.982-0.531-0.708-1.593-1.274-2.832-1.133s-1.876 0.566-2.62 0.991c-0.743 0.425-14.337 14.332-15.505 15.292-1.133 0.531-14.23 0.106-15.151-0.071-0.92-0.177-1.378-0.613-1.609-1.563-0.232-0.95-0.018-2.518 0.335-2.897 0.352-0.379 0.177-0.566 1.062-0.991 0.885-0.425 14.053 0.283 15.221 0 1.168-0.283 1.593-0.602 2.124-1.558 0.531-0.956 0.496-2.973-0.071-3.823-0.319-0.673-1.168-1.239-2.053-1.487s-27.93-0.566-31.646 0.566C34.31 51.43 23.337 64.651 23.337 64.651zM83.5 20.257c0.057 8.189-7.568 11.049-12.49 14.524-4.501 3.178-8.356 7.644-8.821 9.456-0.542-1.849-4.003-6.192-8.866-9.367-5.015-3.274-12.547-6.335-12.49-14.523 0.103-14.91 15.8-17.908 21.323-5.062C67.425 2.951 83.396 5.309 83.5 20.257z" data-fill-palette-color="quaternary"></path></g></svg></g></svg></g><g id="text-0"><path d="M5.262 89.144v0c1.217-0.328 2.72-0.569 4.506-0.722 1.79-0.159 3.717-0.238 5.783-0.236 2.066 0.002 4.146 0.082 6.241 0.24 2.101 0.161 4.093 0.391 5.975 0.69 1.88 0.305 3.512 0.686 4.897 1.142v0c0.665 0.233 0.884 0.657 0.655 1.273v0l-1.69 4.541c-0.217 0.584-0.625 0.779-1.225 0.585v0c-1.417-0.469-3.2-0.877-5.349-1.223v0l-3.815 10.255c1.821 1.072 3.447 1.903 4.877 2.493v0c0.581 0.245 0.757 0.672 0.531 1.282v0l-1.657 4.454c-0.084 0.224-0.217 0.387-0.4 0.486-0.192 0.104-0.449 0.088-0.771-0.046v0c-1.361-0.579-2.863-1.372-4.505-2.376-1.644-0.998-3.315-2.128-5.015-3.388-1.693-1.258-3.325-2.562-4.896-3.913-1.569-1.357-2.975-2.68-4.219-3.968-1.244-1.288-2.219-2.454-2.926-3.498v0c-0.377-0.556-0.609-1.081-0.696-1.573-0.085-0.499-0.016-1.046 0.206-1.643v0l1.005-2.703c0.229-0.616 0.539-1.085 0.929-1.407 0.39-0.322 0.91-0.571 1.559-0.745zM8.171 94.924l-0.043 0.116c1.007 1.316 2.297 2.658 3.869 4.024 1.573 1.366 3.228 2.657 4.966 3.873v0l3.028-8.139c-2.12-0.19-4.221-0.282-6.304-0.275-2.083 0.006-3.922 0.14-5.516 0.401z" fill="#d2dbc8" data-fill-palette-color="primary"></path><path d="M43.091 55.32v0l9.277 7.131c0.315 0.242 0.484 0.476 0.509 0.702 0.019 0.222-0.094 0.493-0.34 0.813v0l-2.515 3.272c-0.242 0.315-0.475 0.494-0.698 0.538-0.225 0.034-0.495-0.07-0.809-0.312v0l-8.448-6.493c-1.156-0.888-2.184-1.291-3.085-1.207-0.903 0.074-1.675 0.529-2.318 1.365v0c-0.646 0.841-0.961 1.626-0.944 2.356 0.016 0.72 0.204 1.413 0.565 2.078v0l9.863 7.581c0.315 0.242 0.482 0.479 0.503 0.711 0.019 0.222-0.094 0.493-0.34 0.813v0l-2.509 3.263c-0.246 0.32-0.479 0.499-0.698 0.538-0.229 0.04-0.501-0.061-0.815-0.303v0l-13.306-10.228c-0.255-0.196-0.409-0.4-0.461-0.613v0c-0.127-0.452-0.224-0.949-0.29-1.492-0.067-0.552-0.1-1.19-0.097-1.913v0c-0.004-0.219 0.044-0.394 0.144-0.524v0c0.088-0.114 0.242-0.202 0.463-0.265v0c0.689-0.178 1.317-0.304 1.883-0.378 0.557-0.073 1.1-0.1 1.629-0.081v0l0.063-0.082c-0.096-0.358-0.163-0.838-0.203-1.437-0.03-0.601 0.083-1.321 0.34-2.16 0.256-0.839 0.774-1.765 1.554-2.78v0c0.763-0.993 1.692-1.785 2.785-2.377 1.094-0.592 2.339-0.809 3.736-0.65 1.391 0.155 2.912 0.866 4.562 2.134z" fill="#d2dbc8" data-fill-palette-color="primary"></path><path d="M69.349 50.37v0c-1.589 1.143-3.174 1.605-4.756 1.386-1.582-0.219-2.939-1.114-4.07-2.687v0c-0.583-0.811-0.977-1.674-1.18-2.59-0.209-0.912-0.133-1.902 0.227-2.971 0.357-1.074 1.086-2.252 2.187-3.533 1.103-1.291 2.676-2.713 4.72-4.268v0c-0.707-0.983-1.464-1.514-2.271-1.591-0.806-0.078-1.701 0.237-2.684 0.945v0c-0.889 0.639-1.509 1.313-1.859 2.02-0.341 0.709-0.543 1.166-0.606 1.372v0c-0.06 0.245-0.21 0.429-0.451 0.552v0c-0.321 0.163-0.686 0.312-1.095 0.446-0.408 0.125-0.853 0.255-1.336 0.392v0c-0.066 0.014-0.15 0.02-0.253 0.018-0.103-0.002-0.193-0.046-0.272-0.133v0c-0.04-0.056-0.084-0.129-0.133-0.22-0.045-0.086-0.123-0.253-0.235-0.502v0c-0.111-0.249-0.241-0.564-0.39-0.946-0.139-0.381-0.233-0.688-0.283-0.921v0c-0.037-0.251 0-0.539 0.111-0.864v0c0.075-0.282 0.458-0.928 1.148-1.938 0.693-1.005 1.923-2.142 3.69-3.414v0c4.866-3.501 9.001-2.885 12.406 1.848v0l6.618 9.199c0.148 0.206 0.217 0.425 0.208 0.659-0.007 0.224-0.147 0.434-0.419 0.631v0l-2.441 1.756c-0.172 0.124-0.343 0.209-0.512 0.255-0.175 0.05-0.371 0.047-0.588-0.008v0l-1.943-0.574-0.117 0.083c0.029 1.083-0.263 2.09-0.875 3.02-0.603 0.931-1.452 1.79-2.546 2.578zM68.425 45.306v0c0.994-0.715 1.565-1.51 1.713-2.382 0.143-0.879 0.089-1.64-0.164-2.285v0l-1.295-1.8c-1.505 1.083-2.552 2.013-3.139 2.79-0.582 0.773-0.864 1.435-0.847 1.987 0.018 0.552 0.183 1.045 0.494 1.478v0c0.452 0.628 0.96 0.924 1.525 0.889 0.565-0.035 1.136-0.261 1.713-0.677z" fill="#d2dbc8" data-fill-palette-color="primary"></path><path d="M107.402 17.455v0l3.912 11.028c0.133 0.374 0.148 0.663 0.046 0.866-0.104 0.197-0.347 0.363-0.727 0.497v0l-3.889 1.38c-0.374 0.133-0.667 0.157-0.879 0.072-0.207-0.093-0.377-0.327-0.51-0.701v0l-3.562-10.042c-0.487-1.374-1.132-2.27-1.934-2.69-0.798-0.428-1.694-0.466-2.687-0.114v0c-1 0.355-1.69 0.843-2.073 1.465-0.378 0.613-0.596 1.297-0.655 2.051v0l4.159 11.725c0.133 0.374 0.145 0.664 0.036 0.869-0.104 0.197-0.347 0.363-0.727 0.498v0l-3.879 1.376c-0.381 0.135-0.673 0.159-0.879 0.072-0.214-0.091-0.387-0.324-0.52-0.697v0l-5.611-15.817c-0.108-0.303-0.125-0.558-0.053-0.765v0c0.139-0.449 0.328-0.919 0.567-1.41 0.244-0.5 0.563-1.053 0.958-1.658v0c0.115-0.186 0.251-0.307 0.406-0.362v0c0.135-0.048 0.313-0.038 0.533 0.029v0c0.675 0.225 1.271 0.46 1.786 0.706 0.507 0.241 0.977 0.514 1.411 0.817v0l0.097-0.034c0.114-0.353 0.318-0.792 0.611-1.317 0.302-0.521 0.788-1.064 1.459-1.629 0.671-0.565 1.609-1.061 2.815-1.488v0c1.18-0.419 2.39-0.579 3.631-0.482 1.24 0.097 2.403 0.592 3.489 1.485 1.084 0.886 1.974 2.309 2.669 4.27z" fill="#d2dbc8" data-fill-palette-color="primary"></path><path d="M135.078 27.275v0c-4.446 0.28-6.815-1.891-7.106-6.515v0l-0.592-9.373-2.264 0.142c-0.396 0.025-0.678-0.04-0.845-0.193-0.161-0.161-0.254-0.44-0.279-0.836v0l-0.155-2.459c-0.025-0.403 0.032-0.691 0.172-0.864 0.147-0.174 0.418-0.273 0.814-0.298v0l2.264-0.143-0.203-3.217c-0.02-0.321 0.029-0.574 0.148-0.76v0c0.514-0.766 1.283-1.61 2.308-2.532v0c0.183-0.142 0.346-0.217 0.49-0.226v0c0.157-0.01 0.322 0.045 0.494 0.164v0c0.602 0.408 1.109 0.791 1.522 1.149 0.421 0.364 0.783 0.722 1.086 1.073v0c0.141 0.169 0.222 0.415 0.242 0.736v0l0.203 3.216 3.544-0.223c0.396-0.025 0.674 0.04 0.835 0.194 0.167 0.154 0.264 0.432 0.29 0.835v0l0.155 2.459c0.025 0.396-0.036 0.684-0.182 0.865-0.14 0.173-0.408 0.273-0.804 0.297v0l-3.545 0.224 0.522 8.277c0.134 2.131 0.977 3.147 2.527 3.05v0c0.239-0.015 0.456-0.053 0.651-0.113 0.195-0.06 0.366-0.122 0.513-0.187v0c0.274-0.12 0.466-0.17 0.577-0.149 0.117 0.013 0.229 0.15 0.334 0.41v0l1.364 3.031c0.137 0.327 0.07 0.572-0.201 0.732v0c-0.192 0.108-0.662 0.316-1.41 0.624-0.749 0.308-1.905 0.511-3.469 0.61z" fill="#d2dbc8" data-fill-palette-color="primary"></path><path d="M159.036 29.006v0c-1.926-0.349-3.359-1.17-4.3-2.46-0.941-1.291-1.239-2.889-0.893-4.794v0c0.178-0.983 0.526-1.866 1.044-2.648 0.511-0.784 1.276-1.417 2.295-1.899 1.021-0.489 2.375-0.783 4.061-0.88 1.695-0.103 3.811 0.041 6.348 0.432v0c0.216-1.192 0.072-2.105-0.431-2.738-0.504-0.634-1.352-1.059-2.544-1.276v0c-1.077-0.196-1.992-0.174-2.745 0.065-0.747 0.247-1.217 0.419-1.408 0.517v0c-0.218 0.127-0.454 0.147-0.71 0.059v0c-0.34-0.117-0.701-0.277-1.081-0.478-0.373-0.207-0.776-0.436-1.211-0.689v0c-0.056-0.038-0.118-0.095-0.188-0.17-0.07-0.075-0.101-0.171-0.094-0.288v0c0.012-0.067 0.034-0.15 0.066-0.249 0.031-0.092 0.097-0.264 0.199-0.517v0c0.102-0.253 0.238-0.565 0.41-0.938 0.177-0.364 0.333-0.646 0.466-0.843v0c0.155-0.201 0.388-0.375 0.699-0.52v0c0.255-0.141 0.986-0.315 2.192-0.521 1.204-0.199 2.877-0.104 5.018 0.285v0c5.898 1.07 8.327 4.474 7.285 10.211v0l-2.023 11.15c-0.045 0.249-0.155 0.452-0.33 0.607-0.166 0.151-0.415 0.196-0.744 0.137v0l-2.959-0.538c-0.209-0.038-0.388-0.102-0.539-0.191-0.157-0.091-0.291-0.234-0.403-0.428v0l-0.936-1.797-0.141-0.026c-0.759 0.773-1.686 1.262-2.781 1.467-1.089 0.213-2.296 0.199-3.622-0.042zM162.037 24.825v0c1.205 0.219 2.173 0.078 2.904-0.422 0.732-0.507 1.242-1.075 1.53-1.705v0l0.396-2.181c-1.825-0.331-3.22-0.438-4.187-0.322-0.96 0.118-1.633 0.375-2.018 0.771-0.385 0.396-0.625 0.857-0.72 1.382v0c-0.138 0.761 0.002 1.332 0.419 1.714 0.418 0.382 0.976 0.636 1.676 0.763z" fill="#d2dbc8" data-fill-palette-color="primary"></path><path d="M199.6 42.913l-8.929-4.381c-1.235-0.606-2.095-1.222-2.58-1.849-0.494-0.624-0.677-1.346-0.549-2.167 0.125-0.815 0.476-1.809 1.051-2.982v0l8.87-18.081c0.172-0.35 0.363-0.584 0.573-0.702v0c0.923-0.53 2.084-0.994 3.483-1.39v0c0.254-0.051 0.445-0.045 0.574 0.019v0c0.147 0.072 0.263 0.217 0.348 0.434v0c0.305 0.714 0.535 1.364 0.689 1.95 0.158 0.596 0.275 1.149 0.353 1.659v0c0.023 0.248-0.048 0.541-0.214 0.878v0l-7.821 15.943c-0.395 0.805-0.532 1.45-0.412 1.936 0.117 0.492 0.572 0.932 1.364 1.32v0l5.52 2.685c0.289 0.142 0.483 0.298 0.582 0.469v0c0.202 0.366 0.399 0.779 0.592 1.239 0.19 0.467 0.366 1.003 0.526 1.608v0c0.048 0.214 0.049 0.367 0.004 0.459v0c-0.054 0.111-0.174 0.2-0.361 0.269v0c-0.577 0.243-1.108 0.432-1.593 0.567-0.483 0.129-0.93 0.226-1.343 0.29v0c-0.22 0.014-0.462-0.044-0.727-0.173z" fill="#d2dbc8" data-fill-palette-color="primary"></path><path d="M229.212 30.293v0c0.107-0.133 0.244-0.221 0.41-0.262 0.167-0.032 0.383-0.077 0.65-0.135v0c0.564-0.099 1.185-0.177 1.865-0.235 0.68-0.058 1.357-0.101 2.03-0.128v0c0.409 0.005 0.675 0.057 0.798 0.156v0c0.128 0.103 0.243 0.359 0.344 0.766v0c0.252 1.409 0.396 2.695 0.433 3.859v0c0.008 0.262 0.015 0.483 0.019 0.662-0.005 0.181-0.061 0.337-0.169 0.47v0c-0.112 0.138-0.251 0.224-0.418 0.257-0.176 0.033-0.408 0.08-0.693 0.139v0c-0.54 0.092-1.145 0.17-1.814 0.237-0.674 0.072-1.341 0.113-2.001 0.125v0c-0.248 0.002-0.427-0.011-0.537-0.038-0.115-0.032-0.21-0.077-0.285-0.137v0c-0.069-0.056-0.129-0.135-0.178-0.237-0.044-0.097-0.102-0.276-0.174-0.536v0c-0.149-0.665-0.254-1.331-0.315-1.995-0.065-0.66-0.107-1.278-0.124-1.856v0c0-0.273-0.001-0.494-0.005-0.663-0.002-0.16 0.052-0.31 0.164-0.449zM229.954 40.908l-11.55 14.301c-0.249 0.309-0.49 0.471-0.722 0.486-0.222 0.014-0.491-0.106-0.805-0.36v0l-3.202-2.586c-0.314-0.254-0.488-0.491-0.521-0.711-0.034-0.23 0.073-0.499 0.323-0.808v0l11.55-14.302c0.254-0.314 0.494-0.476 0.722-0.485 0.222-0.014 0.491 0.106 0.805 0.359v0l3.202 2.586c0.314 0.254 0.488 0.491 0.521 0.711 0.038 0.225-0.069 0.494-0.323 0.809z" fill="#d2dbc8" data-fill-palette-color="primary"></path><path d="M250.991 75.381v0l-9.281 7.127c-0.315 0.242-0.585 0.345-0.809 0.311-0.219-0.039-0.452-0.218-0.698-0.538v0l-2.513-3.272c-0.242-0.315-0.355-0.586-0.34-0.814 0.025-0.226 0.195-0.46 0.509-0.701v0l8.451-6.49c1.156-0.888 1.81-1.778 1.961-2.671 0.161-0.891-0.08-1.755-0.722-2.59v0c-0.646-0.841-1.324-1.347-2.033-1.519-0.7-0.17-1.418-0.167-2.154 0.01v0l-9.866 7.577c-0.315 0.242-0.587 0.343-0.816 0.303-0.219-0.039-0.452-0.218-0.698-0.538v0l-2.507-3.265c-0.246-0.32-0.359-0.591-0.34-0.813 0.021-0.232 0.188-0.468 0.503-0.71v0l13.31-10.221c0.255-0.196 0.492-0.292 0.712-0.288v0c0.469-0.007 0.975 0.028 1.516 0.104 0.551 0.077 1.175 0.21 1.873 0.4v0c0.213 0.052 0.369 0.144 0.469 0.274v0c0.088 0.114 0.133 0.286 0.137 0.515v0c-0.006 0.712-0.046 1.351-0.12 1.917-0.073 0.557-0.187 1.088-0.341 1.595v0l0.063 0.082c0.371 0 0.851 0.058 1.441 0.174 0.589 0.126 1.255 0.421 1.999 0.885 0.744 0.464 1.506 1.203 2.286 2.218v0c0.763 0.993 1.289 2.094 1.58 3.304 0.29 1.209 0.179 2.468-0.335 3.777-0.508 1.305-1.587 2.591-3.237 3.857z" fill="#d2dbc8" data-fill-palette-color="primary"></path><path d="M257.648 99.839l-6.837 2.581c-0.371 0.14-0.661 0.158-0.869 0.053-0.199-0.1-0.37-0.34-0.512-0.717v0l-1.453-3.851c-0.143-0.378-0.172-0.67-0.09-0.877 0.087-0.216 0.316-0.394 0.688-0.533v0l25.352-9.569c0.294-0.111 0.549-0.134 0.764-0.069v0c0.883 0.266 1.916 0.754 3.098 1.464v0c0.187 0.127 0.307 0.261 0.36 0.402v0c0.06 0.16 0.058 0.337-0.009 0.529v0c-0.207 0.692-0.423 1.293-0.647 1.803-0.227 0.503-0.464 0.95-0.711 1.343v0c-0.118 0.191-0.324 0.342-0.619 0.453v0l-14.712 5.553 0.084 0.221c0.718 1.901 1.547 3.062 2.488 3.482 0.935 0.422 2.007 0.405 3.217-0.051v0l1.018-0.384c0.294-0.111 0.549-0.134 0.764-0.069v0c0.883 0.266 1.916 0.754 3.098 1.463v0c0.187 0.127 0.306 0.258 0.356 0.393v0c0.063 0.166 0.061 0.346-0.005 0.539v0c-0.213 0.695-0.429 1.296-0.647 1.802-0.227 0.503-0.464 0.95-0.711 1.344v0c-0.118 0.191-0.324 0.342-0.619 0.453v0l-1.018 0.384c-0.711 0.268-1.551 0.425-2.522 0.469-0.964 0.042-1.918-0.179-2.861-0.664-0.937-0.487-1.721-1.391-2.351-2.712v0l-0.087 0.033c-0.065 1.224-0.334 2.361-0.808 3.41-0.474 1.049-1.05 1.994-1.728 2.835-0.677 0.841-1.357 1.551-2.037 2.13-0.688 0.581-1.291 1.018-1.811 1.308v0c-0.504 0.293-0.84 0.215-1.009-0.233v0l-1.86-4.926c-0.162-0.429 0.002-0.769 0.493-1.02v0c0.555-0.312 1.174-0.765 1.857-1.359 0.676-0.592 1.302-1.278 1.878-2.059 0.576-0.781 0.986-1.612 1.231-2.494 0.245-0.882 0.202-1.762-0.129-2.639v0z" fill="#d2dbc8" data-fill-palette-color="primary"></path><path d="M6.525 146.034c0-1.992 1.615-3.607 3.606-3.606 1.992 0 3.607 1.615 3.607 3.606 0 1.992-1.615 3.607-3.607 3.607-1.992 0-3.607-1.615-3.606-3.607z" fill="#d2dbc8" data-fill-palette-color="primary"></path><path d="M264.935 146.034c0-1.992 1.615-3.607 3.607-3.606 1.992 0 3.607 1.615 3.606 3.606 0 1.992-1.615 3.607-3.606 3.607-1.992 0-3.607-1.615-3.607-3.607z" fill="#d2dbc8" data-fill-palette-color="primary"></path></g><g id="text-1"><path d="M11.202 181.982l11.317-3.055 0.465 1.725-11.317 3.054z" fill="#d2dbc8" data-fill-palette-color="primary"></path><path d="M12.812 187.315l6.929-2.354 0.545 1.603-1.257 0.449c0.485 0.045 0.934 0.228 1.347 0.55 0.411 0.316 0.711 0.752 0.9 1.31v0c0.242 0.713 0.279 1.311 0.111 1.794-0.168 0.484-0.496 0.88-0.983 1.191-0.492 0.319-1.165 0.623-2.02 0.914v0l-3.334 1.132-0.555-1.633 3.295-1.119c0.875-0.297 1.477-0.599 1.806-0.906 0.325-0.298 0.397-0.713 0.217-1.245v0c-0.103-0.305-0.299-0.581-0.586-0.831-0.294-0.247-0.65-0.415-1.071-0.503-0.427-0.086-0.877-0.049-1.349 0.112v0l-3.441 1.168z" fill="#d2dbc8" data-fill-palette-color="primary"></path><path d="M16.375 197.106l6.724-2.89 0.668 1.556-1.218 0.546c0.487 0.007 0.949 0.154 1.386 0.443 0.434 0.283 0.768 0.694 1 1.235v0c0.297 0.692 0.381 1.285 0.252 1.78-0.13 0.495-0.425 0.916-0.887 1.264-0.465 0.356-1.113 0.713-1.943 1.069v0l-3.234 1.391-0.681-1.585 3.197-1.374c0.849-0.365 1.425-0.713 1.729-1.045 0.301-0.323 0.34-0.742 0.119-1.257v0c-0.127-0.295-0.343-0.556-0.649-0.783-0.312-0.223-0.681-0.363-1.107-0.418-0.432-0.053-0.878 0.02-1.337 0.217v0l-3.338 1.435z" fill="#d2dbc8" data-fill-palette-color="primary"></path><path d="M22.156 209.692c-0.356-0.671-0.518-1.344-0.488-2.018 0.03-0.674 0.227-1.289 0.59-1.846 0.37-0.56 0.869-1.006 1.498-1.339v0c0.617-0.327 1.259-0.489 1.926-0.486 0.661 0.006 1.279 0.186 1.854 0.54 0.578 0.36 1.046 0.878 1.405 1.556v0c0.359 0.677 0.521 1.35 0.488 2.018-0.03 0.674-0.229 1.286-0.595 1.837-0.373 0.554-0.867 0.994-1.484 1.32v0c-0.629 0.333-1.279 0.495-1.95 0.487-0.665-0.012-1.283-0.192-1.853-0.54-0.575-0.354-1.038-0.863-1.391-1.529zM23.418 209.071c0.291 0.55 0.723 0.875 1.295 0.975 0.572 0.1 1.163-0.012 1.774-0.336v0c0.611-0.323 1.035-0.765 1.273-1.324 0.238-0.56 0.209-1.118-0.086-1.674v0c-0.282-0.532-0.715-0.853-1.299-0.962-0.59-0.106-1.194 0.005-1.81 0.332v0c-0.605 0.32-1.017 0.763-1.236 1.328-0.229 0.562-0.199 1.116 0.089 1.661z" fill="#d2dbc8" data-fill-palette-color="primary"></path><path d="M27.151 217.906l4.107-7.182 1.052 1.655-1.933 3.101-0.843 1.143 1.388-0.285 3.617-0.451 1.03 1.62-8.242 0.677z" fill="#d2dbc8" data-fill-palette-color="primary"></path><path d="M32.522 226.029c-0.394-0.534-0.628-1.118-0.704-1.751-0.079-0.638 0.016-1.265 0.286-1.881 0.264-0.611 0.71-1.148 1.338-1.61v0c0.617-0.455 1.244-0.734 1.881-0.838 0.637-0.104 1.243-0.032 1.817 0.217 0.58 0.245 1.086 0.662 1.521 1.251v0c0.256 0.347 0.432 0.714 0.53 1.101 0.098 0.387 0.136 0.75 0.114 1.089-0.021 0.33-0.095 0.592-0.222 0.789v0l1.01-0.706 0.98 1.331-5.893 4.34-0.968-1.314 1.023-0.792c-0.414 0.084-0.882 0.02-1.402-0.191-0.521-0.211-0.958-0.556-1.311-1.035zM33.849 225.408c0.357 0.485 0.83 0.77 1.42 0.854 0.58 0.083 1.142-0.076 1.687-0.478v0l0.091-0.067c0.369-0.272 0.643-0.593 0.821-0.962 0.178-0.369 0.25-0.745 0.216-1.127-0.029-0.386-0.16-0.736-0.392-1.051v0c-0.406-0.551-0.897-0.843-1.474-0.877-0.576-0.043-1.147 0.144-1.715 0.562v0c-0.573 0.422-0.926 0.912-1.06 1.469-0.139 0.561-0.004 1.12 0.406 1.677z" fill="#d2dbc8" data-fill-palette-color="primary"></path><path d="M37.85 232.56l4.5-3.835-0.832-0.976 1.07-0.913 0.833 0.977 2.273-1.937 1.421 1.081-2.563 2.184 1.092 1.281-1.07 0.912-1.092-1.281-4.5 3.835z" fill="#d2dbc8" data-fill-palette-color="primary"></path><path d="M41.868 237.125l5.374-4.969 1.212 1.312-5.373 4.968zM48.844 231.863c-0.223-0.241-0.331-0.519-0.324-0.833 0.017-0.314 0.146-0.583 0.388-0.806v0c0.221-0.204 0.484-0.298 0.788-0.282 0.309 0.022 0.575 0.153 0.798 0.395v0c0.218 0.236 0.324 0.507 0.317 0.811-0.002 0.31-0.114 0.567-0.335 0.772v0c-0.241 0.223-0.519 0.331-0.834 0.323-0.309-0.012-0.576-0.139-0.798-0.38z" fill="#d2dbc8" data-fill-palette-color="primary"></path><path d="M45.6 240.964l5.072-5.276 1.221 1.174-0.91 0.976c0.451-0.183 0.934-0.227 1.449-0.13 0.51 0.092 0.977 0.341 1.402 0.749v0c0.543 0.522 0.851 1.036 0.923 1.542 0.073 0.507-0.036 1.01-0.326 1.509-0.29 0.509-0.748 1.089-1.374 1.741v0l-2.439 2.538-1.244-1.195 2.412-2.509c0.64-0.666 1.036-1.211 1.187-1.635 0.151-0.414 0.025-0.816-0.38-1.205v0c-0.232-0.223-0.533-0.379-0.902-0.468-0.374-0.085-0.768-0.069-1.182 0.045-0.419 0.12-0.801 0.359-1.148 0.72v0l-2.518 2.619z" fill="#d2dbc8" data-fill-palette-color="primary"></path><path d="M53.624 253.244c-0.419-0.341-0.786-0.737-1.099-1.186-0.314-0.449-0.519-0.793-0.616-1.031v0l1.305-1.002c0.257 0.801 0.707 1.462 1.349 1.985v0c0.493 0.402 1.007 0.622 1.541 0.659 0.534 0.038 1.085-0.286 1.652-0.971v0l0.829-1.019c-0.433 0.185-0.93 0.227-1.49 0.123-0.565-0.098-1.083-0.339-1.555-0.723v0c-0.493-0.402-0.848-0.893-1.063-1.475-0.215-0.581-0.256-1.197-0.124-1.847 0.128-0.645 0.437-1.268 0.925-1.868v0c0.471-0.578 1.004-1 1.6-1.266 0.595-0.265 1.202-0.349 1.82-0.252 0.622 0.092 1.215 0.367 1.777 0.825v0c0.329 0.268 0.589 0.577 0.781 0.927 0.197 0.354 0.327 0.699 0.39 1.033 0.068 0.329 0.064 0.604-0.01 0.825v0l0.801-0.936 1.266 1.031-4.588 5.635c-0.786 0.966-1.638 1.508-2.555 1.626-0.917 0.118-1.895-0.246-2.936-1.093zM56.834 249.253c0.467 0.38 0.994 0.54 1.582 0.48 0.586-0.07 1.093-0.367 1.521-0.893v0l0.071-0.087c0.289-0.356 0.474-0.734 0.555-1.137 0.076-0.397 0.052-0.779-0.074-1.145-0.129-0.361-0.345-0.665-0.648-0.911v0c-0.531-0.432-1.078-0.595-1.64-0.489-0.573 0.107-1.079 0.432-1.52 0.973v0c-0.449 0.552-0.671 1.117-0.666 1.695 0.01 0.573 0.283 1.078 0.819 1.514z" fill="#d2dbc8" data-fill-palette-color="primary"></path><path d="M70.6 260.591c-1.027-0.642-1.775-1.427-2.243-2.357-0.459-0.932-0.649-1.906-0.57-2.922 0.088-1.018 0.421-1.992 1.001-2.921v0c0.616-0.987 1.38-1.732 2.292-2.235 0.909-0.513 1.889-0.744 2.938-0.694 1.053 0.045 2.07 0.373 3.051 0.986v0c0.441 0.276 0.822 0.582 1.144 0.92 0.325 0.332 0.577 0.639 0.757 0.921 0.173 0.278 0.275 0.483 0.306 0.614v0l-1.505 0.936c-0.247-0.832-0.811-1.523-1.693-2.074v0c-0.621-0.388-1.28-0.586-1.978-0.594-0.697-0.008-1.368 0.182-2.013 0.57-0.645 0.388-1.202 0.956-1.67 1.704v0c-0.428 0.685-0.685 1.387-0.772 2.108-0.096 0.722 0.003 1.397 0.296 2.025 0.296 0.637 0.787 1.169 1.472 1.596v0c0.795 0.497 1.701 0.752 2.717 0.766v0l-0.356 1.557c-0.31 0.057-0.781 0.004-1.414-0.158-0.633-0.162-1.22-0.411-1.76-0.748z" fill="#d2dbc8" data-fill-palette-color="primary"></path><path d="M78.808 265.227c-0.59-0.304-1.059-0.723-1.408-1.256-0.355-0.537-0.548-1.141-0.58-1.811-0.035-0.665 0.126-1.344 0.484-2.037v0c0.351-0.681 0.789-1.21 1.314-1.587 0.525-0.376 1.1-0.58 1.724-0.612 0.628-0.038 1.267 0.11 1.918 0.445v0c0.383 0.197 0.705 0.448 0.965 0.751 0.26 0.303 0.455 0.611 0.585 0.925 0.128 0.305 0.178 0.573 0.151 0.806v0l0.592-1.081 1.469 0.757-3.352 6.505-1.451-0.747 0.565-1.164c-0.334 0.259-0.781 0.41-1.342 0.452-0.561 0.042-1.105-0.073-1.634-0.346zM79.721 264.082c0.535 0.276 1.086 0.321 1.651 0.134 0.556-0.183 0.989-0.576 1.3-1.177v0l0.052-0.101c0.21-0.408 0.313-0.816 0.308-1.226-0.004-0.41-0.107-0.779-0.307-1.106-0.198-0.333-0.47-0.589-0.817-0.767v0c-0.608-0.313-1.179-0.357-1.711-0.131-0.535 0.217-0.964 0.639-1.287 1.265v0c-0.326 0.633-0.425 1.228-0.297 1.787 0.125 0.565 0.494 1.005 1.108 1.322z" fill="#d2dbc8" data-fill-palette-color="primary"></path><path d="M85.857 268.446l2.887-6.725 1.575 0.676-0.566 1.32c0.352-0.385 0.761-0.638 1.229-0.757 0.471-0.126 0.933-0.091 1.386 0.104v0c0.308 0.132 0.508 0.255 0.601 0.369v0l-0.902 1.501c-0.064-0.094-0.243-0.205-0.539-0.332v0c-0.459-0.197-0.939-0.232-1.44-0.104-0.504 0.134-0.894 0.521-1.169 1.162v0l-1.486 3.462z" fill="#d2dbc8" data-fill-palette-color="primary"></path><path d="M95.503 272.388c-0.818-0.293-1.442-0.702-1.872-1.226-0.439-0.52-0.689-1.101-0.751-1.74-0.068-0.642 0.014-1.289 0.247-1.939v0c0.261-0.728 0.645-1.314 1.152-1.758 0.499-0.439 1.072-0.71 1.72-0.812 0.647-0.103 1.312-0.032 1.995 0.212v0c1.057 0.378 1.738 0.953 2.043 1.724 0.306 0.771 0.268 1.688-0.112 2.75v0c-0.097 0.271-0.21 0.546-0.34 0.827v0l-4.957-1.774c-0.107 0.645-0.048 1.16 0.177 1.546 0.232 0.388 0.638 0.686 1.217 0.893v0c0.483 0.173 0.893 0.276 1.23 0.31 0.337 0.033 0.66 0.025 0.968-0.024v0l0.091 1.33c-0.309 0.071-0.701 0.091-1.176 0.058-0.475-0.032-1.019-0.158-1.632-0.377zM95.032 267.521l3.421 1.225c0.234-0.614 0.256-1.1 0.065-1.46-0.187-0.35-0.542-0.619-1.064-0.806v0c-1.05-0.376-1.858-0.029-2.422 1.041z" fill="#d2dbc8" data-fill-palette-color="primary"></path><path d="M112.881 276.937l-1.249-4.438-2.991 3.502-0.29-0.064-1.429-7.81 1.804 0.398 0.625 4.5 2.953-3.71 0.06 0.013 1.143 4.583 2.455-3.788 1.774 0.392-4.564 6.486z" fill="#d2dbc8" data-fill-palette-color="primary"></path><path d="M118.624 278.069l1.145-7.228 1.764 0.28-1.145 7.228zM120.846 269.619c-0.324-0.051-0.581-0.203-0.769-0.455-0.181-0.257-0.246-0.548-0.195-0.872v0c0.047-0.297 0.195-0.534 0.445-0.709 0.256-0.174 0.547-0.236 0.871-0.184v0c0.318 0.05 0.568 0.197 0.751 0.441 0.19 0.245 0.261 0.516 0.214 0.813v0c-0.051 0.324-0.203 0.581-0.454 0.77-0.251 0.182-0.538 0.247-0.863 0.196z" fill="#d2dbc8" data-fill-palette-color="primary"></path><path d="M124.531 278.85l0.632-5.878-1.276-0.137 0.15-1.399 1.276 0.138 0.319-2.97 1.776-0.191-0.36 3.347 1.674 0.18-0.151 1.398-1.673-0.18-0.632 5.879z" fill="#d2dbc8" data-fill-palette-color="primary"></path><path d="M130.602 279.383l0.572-11.708 1.671 0.081-0.215 4.399-0.127 1.35c0.227-0.434 0.569-0.787 1.028-1.06 0.459-0.272 0.985-0.394 1.579-0.364v0c0.752 0.037 1.322 0.222 1.71 0.556 0.388 0.334 0.64 0.785 0.756 1.352 0.109 0.574 0.141 1.312 0.097 2.214v0l-0.172 3.517-1.701-0.083 0.172-3.537c0.03-0.615 0.016-1.099-0.042-1.451-0.051-0.359-0.175-0.632-0.371-0.82-0.196-0.188-0.493-0.291-0.889-0.311v0c-0.314-0.015-0.64 0.065-0.978 0.24-0.331 0.176-0.611 0.439-0.84 0.792-0.23 0.359-0.357 0.788-0.381 1.286v0l-0.178 3.629z" fill="#d2dbc8" data-fill-palette-color="primary"></path><path d="M151.408 279.195c-1.208 0.092-2.276-0.098-3.204-0.57-0.922-0.479-1.652-1.151-2.191-2.016-0.533-0.872-0.841-1.854-0.924-2.945v0c-0.088-1.16 0.086-2.213 0.521-3.159 0.429-0.952 1.081-1.719 1.956-2.301 0.875-0.588 1.889-0.926 3.042-1.013v0c0.519-0.039 1.007-0.018 1.467 0.063 0.459 0.075 0.844 0.173 1.154 0.293 0.304 0.121 0.508 0.226 0.611 0.314v0l-0.657 1.646c-0.692-0.524-1.556-0.746-2.594-0.668v0c-0.73 0.056-1.378 0.287-1.944 0.694-0.566 0.407-0.994 0.958-1.285 1.652-0.29 0.695-0.402 1.482-0.335 2.362v0c0.061 0.805 0.27 1.524 0.628 2.155 0.351 0.639 0.83 1.124 1.438 1.456 0.616 0.337 1.326 0.476 2.132 0.414v0c0.935-0.071 1.815-0.402 2.642-0.994v0l0.636 1.465c-0.216 0.229-0.627 0.466-1.232 0.711-0.606 0.245-1.226 0.392-1.861 0.441z" fill="#d2dbc8" data-fill-palette-color="primary"></path><path d="M160.936 278.041c-0.75 0.119-1.439 0.056-2.067-0.19-0.628-0.247-1.147-0.632-1.556-1.156-0.41-0.531-0.671-1.147-0.783-1.85v0c-0.11-0.689-0.055-1.349 0.163-1.98 0.22-0.624 0.59-1.15 1.111-1.58 0.527-0.43 1.17-0.706 1.926-0.826v0c0.757-0.12 1.446-0.057 2.068 0.191 0.628 0.247 1.143 0.632 1.545 1.157 0.403 0.532 0.66 1.142 0.77 1.832v0c0.112 0.703 0.055 1.37-0.171 2.001-0.226 0.625-0.596 1.152-1.11 1.58-0.521 0.429-1.153 0.703-1.896 0.821zM160.756 276.646c0.615-0.098 1.062-0.401 1.341-0.91 0.279-0.509 0.365-1.104 0.257-1.786v0c-0.109-0.683-0.389-1.227-0.842-1.633-0.453-0.406-0.99-0.56-1.612-0.461v0c-0.595 0.095-1.038 0.401-1.329 0.918-0.291 0.524-0.381 1.131-0.272 1.82v0c0.107 0.676 0.393 1.209 0.857 1.6 0.458 0.398 0.992 0.549 1.6 0.452z" fill="#d2dbc8" data-fill-palette-color="primary"></path><path d="M167.687 276.612l-1.688-7.121 1.648-0.39 0.328 1.293c0.091-0.479 0.316-0.908 0.675-1.289 0.353-0.379 0.816-0.636 1.389-0.772v0c0.732-0.174 1.331-0.154 1.797 0.06 0.465 0.213 0.829 0.577 1.092 1.091 0.271 0.52 0.51 1.219 0.719 2.098v0l0.811 3.426-1.678 0.397-0.802-3.386c-0.213-0.899-0.457-1.527-0.731-1.883-0.266-0.352-0.672-0.463-1.219-0.334v0c-0.313 0.074-0.607 0.242-0.882 0.505-0.274 0.269-0.475 0.608-0.603 1.018-0.126 0.417-0.132 0.868-0.016 1.354v0l0.838 3.536z" fill="#d2dbc8" data-fill-palette-color="primary"></path><path d="M177.771 273.992l-2.241-6.967 1.612-0.519 0.429 1.264c0.053-0.484 0.243-0.93 0.572-1.338 0.322-0.406 0.764-0.699 1.324-0.879v0c0.717-0.231 1.315-0.258 1.796-0.081 0.481 0.176 0.872 0.51 1.174 1.002 0.311 0.497 0.604 1.175 0.881 2.035v0l1.078 3.351-1.641 0.528-1.066-3.312c-0.283-0.879-0.575-1.486-0.877-1.821-0.293-0.33-0.707-0.409-1.24-0.237v0c-0.306 0.099-0.586 0.289-0.841 0.573-0.252 0.289-0.425 0.644-0.52 1.062-0.093 0.425-0.063 0.876 0.089 1.351v0l1.113 3.459z" fill="#d2dbc8" data-fill-palette-color="primary"></path><path d="M190.883 269.421c-0.804 0.331-1.541 0.445-2.212 0.344-0.674-0.092-1.249-0.355-1.723-0.789-0.481-0.431-0.853-0.966-1.116-1.605v0c-0.294-0.715-0.402-1.407-0.322-2.077 0.076-0.66 0.32-1.245 0.732-1.755 0.412-0.51 0.953-0.903 1.624-1.179v0c1.038-0.427 1.928-0.457 2.671-0.089 0.743 0.368 1.33 1.073 1.76 2.117v0c0.109 0.266 0.21 0.546 0.301 0.842v0l-4.869 2.004c0.352 0.551 0.741 0.894 1.167 1.029 0.432 0.133 0.933 0.082 1.503-0.152v0c0.475-0.195 0.848-0.393 1.12-0.595 0.272-0.201 0.507-0.423 0.703-0.666v0l0.958 0.926c-0.182 0.26-0.46 0.537-0.834 0.832-0.374 0.295-0.862 0.566-1.463 0.813zM187.272 266.123l3.36-1.383c-0.237-0.613-0.547-0.988-0.93-1.126-0.374-0.135-0.817-0.097-1.329 0.114v0c-1.031 0.424-1.398 1.223-1.101 2.395z" fill="#d2dbc8" data-fill-palette-color="primary"></path><path d="M199.662 265.363c-0.65 0.322-1.305 0.471-1.966 0.448-0.655-0.027-1.266-0.228-1.835-0.604-0.571-0.381-1.033-0.928-1.385-1.639v0c-0.334-0.674-0.488-1.339-0.461-1.993 0.03-0.649 0.231-1.237 0.603-1.766 0.372-0.528 0.892-0.958 1.561-1.289v0c0.503-0.249 0.97-0.401 1.401-0.454 0.432-0.054 0.799-0.037 1.102 0.05v0l-0.065 1.579c-0.602-0.198-1.155-0.172-1.658 0.077v0c-0.607 0.301-0.977 0.717-1.11 1.249-0.143 0.529-0.06 1.103 0.246 1.722v0c0.349 0.705 0.787 1.172 1.313 1.4 0.526 0.228 1.083 0.197 1.671-0.095v0c0.294-0.146 0.561-0.332 0.801-0.557 0.239-0.226 0.407-0.435 0.502-0.627v0l1.09 0.812c-0.126 0.269-0.345 0.56-0.655 0.874-0.316 0.317-0.701 0.588-1.155 0.813z" fill="#d2dbc8" data-fill-palette-color="primary"></path><path d="M204.73 262.465l-2.933-5.133-1.114 0.637-0.698-1.221 1.114-0.637-1.482-2.593 1.327-1.196 1.67 2.923 1.462-0.835 0.698 1.221-1.462 0.835 2.933 5.134z" fill="#d2dbc8" data-fill-palette-color="primary"></path><path d="M212.881 257.629c-0.728 0.475-1.431 0.725-2.108 0.75-0.68 0.035-1.293-0.116-1.841-0.454-0.553-0.334-1.018-0.79-1.396-1.368v0c-0.423-0.648-0.657-1.308-0.703-1.98-0.048-0.663 0.082-1.283 0.391-1.861 0.309-0.578 0.768-1.065 1.376-1.461v0c0.94-0.613 1.809-0.809 2.608-0.587 0.799 0.222 1.507 0.806 2.123 1.752v0c0.157 0.241 0.308 0.497 0.454 0.771v0l-4.41 2.877c0.449 0.475 0.895 0.74 1.339 0.793 0.449 0.05 0.932-0.093 1.447-0.43v0c0.43-0.28 0.76-0.545 0.99-0.793 0.23-0.248 0.419-0.51 0.566-0.785v0l1.115 0.731c-0.13 0.289-0.352 0.613-0.665 0.973-0.313 0.359-0.742 0.717-1.286 1.072zM208.719 255.062l3.043-1.985c-0.348-0.558-0.722-0.869-1.124-0.934-0.392-0.063-0.821 0.057-1.285 0.36v0c-0.934 0.61-1.146 1.462-0.634 2.559z" fill="#d2dbc8" data-fill-palette-color="primary"></path><path d="M220.612 252.07c-0.527 0.404-1.106 0.65-1.737 0.738-0.637 0.092-1.265 0.009-1.885-0.248-0.616-0.252-1.161-0.687-1.636-1.306v0c-0.704-0.917-1.011-1.851-0.92-2.801 0.091-0.949 0.573-1.76 1.448-2.43v0c0.494-0.379 1.036-0.601 1.624-0.665 0.59-0.074 1.085 0.004 1.485 0.232v0l-0.821-0.935-2.749-3.583 1.343-1.031 7.136 9.3-1.303 0.999-0.812-1.007c0.092 0.412 0.038 0.881-0.163 1.406-0.201 0.525-0.538 0.969-1.01 1.331zM219.953 250.739c0.478-0.367 0.755-0.843 0.832-1.428 0.067-0.587-0.105-1.149-0.517-1.686v0l-0.069-0.089c-0.279-0.364-0.605-0.631-0.978-0.803-0.369-0.166-0.746-0.23-1.131-0.192-0.381 0.043-0.727 0.182-1.036 0.419v0c-0.543 0.417-0.828 0.911-0.854 1.484-0.028 0.582 0.171 1.15 0.595 1.704v0c0.433 0.565 0.932 0.911 1.496 1.038 0.56 0.123 1.114-0.027 1.662-0.447z" fill="#d2dbc8" data-fill-palette-color="primary"></path><path d="M232.414 241.813c-0.456 0.444-0.988 0.805-1.597 1.082-0.609 0.277-1.106 0.413-1.494 0.408v0l-0.456-1.676c0.305-0.01 0.703-0.102 1.194-0.274 0.491-0.172 0.893-0.411 1.207-0.717v0c0.402-0.391 0.637-0.807 0.706-1.246 0.069-0.439-0.062-0.828-0.391-1.167v0c-0.248-0.255-0.534-0.411-0.857-0.469-0.323-0.058-0.645-0.055-0.966 0.009-0.32 0.073-0.753 0.193-1.297 0.36v0c-0.642 0.214-1.093 0.343-1.355 0.389v0c-1.222 0.226-2.259-0.098-3.108-0.971v0c-0.707-0.726-1.008-1.516-0.905-2.371 0.108-0.85 0.527-1.631 1.258-2.343v0c0.784-0.764 1.671-1.187 2.659-1.271v0l0.4 1.632c-0.29-0.014-0.623 0.052-0.998 0.197-0.365 0.145-0.697 0.363-0.995 0.654v0c-0.382 0.372-0.598 0.749-0.647 1.131-0.049 0.382 0.089 0.739 0.414 1.073v0c0.229 0.235 0.503 0.379 0.822 0.432 0.319 0.053 0.65 0.045 0.994-0.023 0.34-0.063 0.786-0.169 1.34-0.316v0c0.529-0.143 0.937-0.249 1.224-0.318 0.296-0.069 0.597-0.103 0.901-0.104v0c0.412-0.019 0.82 0.042 1.225 0.184 0.405 0.141 0.767 0.376 1.086 0.704v0c0.496 0.51 0.804 1.056 0.922 1.638 0.118 0.582 0.062 1.162-0.168 1.74-0.23 0.587-0.603 1.132-1.118 1.633z" fill="#d2dbc8" data-fill-palette-color="primary"></path><path d="M239.43 234.374c-0.503 0.569-1.075 0.958-1.717 1.167-0.642 0.209-1.287 0.242-1.936 0.098-0.654-0.149-1.248-0.459-1.78-0.93v0c-0.523-0.462-0.901-1.006-1.134-1.632-0.227-0.621-0.277-1.263-0.147-1.925 0.133-0.668 0.454-1.288 0.961-1.863v0c0.508-0.574 1.08-0.963 1.717-1.167 0.642-0.209 1.284-0.239 1.929-0.09 0.649 0.154 1.236 0.462 1.758 0.924v0c0.533 0.471 0.914 1.022 1.142 1.653 0.223 0.626 0.272 1.268 0.148 1.925-0.129 0.662-0.442 1.276-0.941 1.84zM238.403 233.412c0.412-0.467 0.565-0.985 0.457-1.556-0.108-0.57-0.421-1.084-0.938-1.542v0c-0.518-0.458-1.081-0.699-1.689-0.724-0.608-0.026-1.12 0.198-1.536 0.669v0c-0.399 0.451-0.546 0.969-0.443 1.554 0.109 0.59 0.425 1.115 0.949 1.578v0c0.513 0.453 1.072 0.683 1.678 0.689 0.607 0.016 1.114-0.207 1.522-0.668z" fill="#d2dbc8" data-fill-palette-color="primary"></path><path d="M243.792 228.938l-9.194-7.272 1.064-1.344 9.194 7.271z" fill="#d2dbc8" data-fill-palette-color="primary"></path><path d="M248.56 222.695c-0.576 0.825-1.215 1.221-1.919 1.189-0.708-0.027-1.499-0.345-2.374-0.956v0l-3.358-2.344 0.987-1.414 3.004 2.097c0.499 0.349 0.906 0.591 1.221 0.727 0.314 0.136 0.596 0.162 0.846 0.078 0.247-0.078 0.489-0.289 0.729-0.631v0c0.168-0.241 0.261-0.523 0.277-0.845 0.026-0.324-0.031-0.643-0.17-0.958-0.143-0.309-0.358-0.563-0.645-0.763v0l-3.4-2.373 0.975-1.397 6.001 4.189-0.799 1.144-0.987-0.451c0.184 0.454 0.246 0.902 0.188 1.345-0.059 0.443-0.251 0.897-0.576 1.363z" fill="#d2dbc8" data-fill-palette-color="primary"></path><path d="M252.902 215.753l-5.068-3.045-0.661 1.1-1.205-0.724 0.661-1.1-2.561-1.538 0.573-1.692 2.886 1.734 0.867-1.443 1.206 0.724-0.867 1.443 5.068 3.045z" fill="#d2dbc8" data-fill-palette-color="primary"></path><path d="M255.95 210.491l-6.42-3.512 0.857-1.567 6.42 3.512zM248.741 205.553c-0.158 0.288-0.387 0.479-0.687 0.572-0.303 0.084-0.599 0.047-0.887-0.111v0c-0.264-0.144-0.437-0.364-0.517-0.657-0.078-0.3-0.038-0.594 0.119-0.883v0c0.154-0.282 0.377-0.468 0.669-0.558 0.294-0.096 0.574-0.072 0.838 0.072v0c0.288 0.158 0.479 0.387 0.571 0.687 0.087 0.297 0.052 0.59-0.106 0.878z" fill="#d2dbc8" data-fill-palette-color="primary"></path><path d="M260.005 202.697c-0.323 0.688-0.763 1.222-1.32 1.603-0.557 0.381-1.167 0.594-1.83 0.637-0.669 0.041-1.326-0.09-1.97-0.392v0c-0.632-0.297-1.147-0.713-1.546-1.248-0.393-0.532-0.62-1.134-0.683-1.806-0.06-0.678 0.073-1.364 0.399-2.058v0c0.326-0.694 0.766-1.228 1.32-1.603 0.557-0.381 1.166-0.59 1.826-0.628 0.666-0.035 1.316 0.096 1.947 0.393v0c0.644 0.302 1.164 0.724 1.56 1.266 0.39 0.538 0.617 1.14 0.683 1.806 0.062 0.672-0.066 1.349-0.386 2.03zM258.749 202.062c0.265-0.564 0.265-1.104 0.002-1.621-0.264-0.517-0.708-0.922-1.334-1.216v0c-0.626-0.294-1.234-0.368-1.824-0.222-0.59 0.146-1.019 0.504-1.287 1.074v0c-0.256 0.545-0.252 1.084 0.012 1.616 0.27 0.535 0.721 0.951 1.354 1.248v0c0.619 0.291 1.221 0.354 1.804 0.19 0.587-0.155 1.011-0.512 1.273-1.069z" fill="#d2dbc8" data-fill-palette-color="primary"></path><path d="M262.616 196.31l-6.839-2.606 0.604-1.583 1.254 0.456c-0.345-0.344-0.574-0.772-0.687-1.283-0.115-0.505-0.068-1.033 0.142-1.583v0c0.268-0.703 0.621-1.188 1.059-1.452 0.438-0.265 0.943-0.362 1.517-0.29 0.582 0.068 1.295 0.263 2.139 0.584v0l3.289 1.254-0.614 1.611-3.251-1.239c-0.863-0.329-1.52-0.48-1.969-0.454-0.441 0.022-0.761 0.296-0.961 0.821v0c-0.115 0.301-0.141 0.638-0.079 1.013 0.068 0.378 0.236 0.735 0.504 1.071 0.274 0.339 0.644 0.597 1.111 0.775v0l3.395 1.294z" fill="#d2dbc8" data-fill-palette-color="primary"></path><path d="M266.997 184.143c-0.147 0.492-0.365 0.98-0.652 1.465-0.281 0.487-0.544 0.816-0.788 0.986v0l-1.134-0.939c0.609-0.482 1.03-1.117 1.266-1.903v0c0.233-0.78 0.124-1.238-0.328-1.374v0c-0.21-0.063-0.394-0.032-0.553 0.092-0.16 0.131-0.379 0.383-0.655 0.758v0l-0.39 0.515c-0.425 0.537-0.862 0.935-1.31 1.194-0.447 0.252-0.952 0.294-1.516 0.125v0c-0.636-0.19-1.062-0.593-1.278-1.207-0.21-0.613-0.188-1.342 0.065-2.187v0c0.124-0.413 0.292-0.809 0.505-1.189 0.211-0.372 0.422-0.645 0.63-0.818v0l1.139 0.994c-0.177 0.09-0.354 0.265-0.533 0.526-0.187 0.266-0.333 0.575-0.438 0.93v0c-0.216 0.721-0.104 1.147 0.335 1.279v0c0.243 0.073 0.455 0.032 0.636-0.121 0.19-0.157 0.426-0.433 0.708-0.827v0c0.025-0.035 0.128-0.176 0.309-0.422v0c0.45-0.573 0.886-0.967 1.307-1.184 0.417-0.225 0.882-0.261 1.393-0.109v0c0.695 0.208 1.141 0.627 1.338 1.258 0.204 0.632 0.185 1.352-0.056 2.158z" fill="#d2dbc8" data-fill-palette-color="primary"></path></g></svg></g></svg></g></svg></g><g></g></svg></g><defs></defs></svg><rect width="279.72" height="279.72" fill="none" stroke="none" visibility="hidden"></rect></g></svg></g></svg>